<?xml version="1.0" standalone="no"?>
<!DOCTYPE svg PUBLIC "-//W3C//DTD SVG 20010904//EN"
 "http://www.w3.org/TR/2001/REC-SVG-20010904/DTD/svg10.dtd">
<svg version="1.0" xmlns="http://www.w3.org/2000/svg"
 width="700.000000pt" height="700.000000pt" viewBox="0 0 700.000000 700.000000"
 preserveAspectRatio="xMidYMid meet">
<metadata>
Created by potrace 1.14, written by Peter Selinger 2001-2017
</metadata>
<g transform="translate(0.000000,700.000000) scale(0.100000,-0.100000)"
fill="#000000" stroke="none">
<path d="M5830 5747 c0 -5 -12 -8 -27 -7 -16 1 -30 1 -33 0 -3 -1 -23 -4 -45
-6 -36 -3 -72 -9 -85 -14 -3 -1 -9 -2 -14 -1 -4 1 -23 -3 -41 -9 -19 -6 -44
-13 -57 -15 -55 -11 -69 -14 -76 -19 -5 -3 -24 -8 -43 -11 -19 -4 -38 -8 -44
-9 -5 -1 -16 -5 -22 -9 -7 -5 -13 -6 -13 -2 0 3 -13 -1 -30 -10 -16 -9 -30
-14 -30 -11 0 5 -255 -80 -282 -95 -11 -6 -27 -12 -36 -14 -9 -2 -35 -11 -57
-21 -22 -10 -42 -18 -45 -19 -3 -1 -18 -7 -35 -14 -93 -36 -138 -72 -127 -100
8 -21 35 -51 45 -51 5 0 15 -6 22 -12 27 -25 40 -34 73 -53 17 -11 32 -23 32
-27 0 -4 7 -8 15 -8 8 0 15 -5 15 -10 0 -6 8 -14 18 -17 9 -4 24 -14 32 -23 8
-10 25 -20 38 -24 12 -4 22 -11 22 -16 0 -13 42 -3 52 12 4 7 8 9 8 4 0 -5 7
-3 15 4 8 7 15 10 15 6 0 -4 18 3 40 14 21 11 48 20 60 20 11 0 20 5 20 11 0
6 7 9 15 5 8 -3 15 -1 15 5 0 6 5 7 10 4 6 -3 10 -1 10 4 0 6 3 10 8 9 9 -3
118 27 190 53 33 11 52 14 52 7 0 -7 4 -7 13 1 15 12 138 40 207 47 86 9 105
11 105 14 0 6 171 5 180 -1 6 -4 20 -6 30 -5 11 2 25 1 30 -3 6 -3 18 -7 29
-8 67 -11 173 -103 159 -140 -3 -7 -1 -13 4 -13 21 0 -1 -149 -29 -196 -11
-19 -17 -34 -12 -34 4 0 -1 -9 -11 -20 -10 -11 -14 -20 -9 -20 5 0 4 -4 -2 -8
-5 -4 -25 -31 -43 -61 -18 -30 -39 -61 -47 -68 -8 -8 -14 -19 -14 -25 0 -6
-10 -19 -22 -29 -11 -11 -17 -19 -13 -19 5 0 0 -7 -11 -15 -10 -8 -16 -15 -13
-15 9 0 -99 -117 -233 -252 -60 -59 -108 -112 -108 -118 0 -5 -3 -9 -7 -9 -21
3 -33 -2 -33 -16 0 -8 -6 -15 -12 -15 -7 0 -22 -13 -33 -29 -11 -17 -21 -28
-23 -26 -4 4 -50 -33 -107 -89 -22 -21 -42 -39 -45 -39 -5 -1 -51 -40 -82 -69
-10 -10 -21 -18 -24 -18 -3 0 -16 -9 -28 -19 -42 -39 -75 -66 -101 -85 -14
-11 -36 -28 -48 -39 -12 -10 -34 -26 -49 -35 -16 -9 -28 -20 -28 -25 0 -4 -4
-5 -10 -2 -5 3 -10 -2 -10 -11 0 -10 -3 -15 -6 -11 -3 3 -22 -9 -41 -26 -20
-18 -39 -31 -44 -29 -5 1 -9 -2 -9 -8 0 -5 -6 -10 -14 -10 -8 0 -17 -7 -20
-16 -3 -8 -10 -12 -16 -9 -5 3 -10 2 -10 -3 0 -5 -24 -24 -52 -42 -29 -19 -60
-42 -69 -52 -9 -10 -19 -15 -23 -11 -3 3 -6 1 -6 -5 0 -7 -7 -12 -15 -12 -8 0
-15 -4 -15 -10 0 -5 -6 -10 -14 -10 -8 0 -16 -4 -18 -8 -1 -4 -39 -33 -83 -63
-44 -29 -81 -57 -83 -61 -2 -5 -10 -8 -17 -8 -7 0 -15 -7 -19 -15 -3 -8 -12
-15 -21 -15 -13 0 -36 -15 -69 -46 -6 -6 -15 -12 -21 -13 -5 -1 -39 -21 -75
-43 -36 -23 -67 -42 -70 -42 -3 0 -14 -8 -24 -18 -11 -10 -23 -18 -26 -18 -4
0 -20 -11 -36 -25 -16 -14 -32 -25 -36 -25 -10 0 -112 -64 -116 -72 -2 -5 -9
-8 -16 -8 -8 0 -25 -9 -38 -20 -14 -10 -28 -16 -32 -13 -3 3 -6 2 -6 -4 0 -6
-13 -16 -30 -23 -16 -7 -30 -17 -30 -22 0 -5 -5 -6 -11 -3 -6 4 -16 0 -22 -8
-7 -8 -32 -25 -57 -38 -25 -13 -47 -26 -50 -29 -3 -3 -18 -12 -35 -20 -16 -8
-39 -23 -49 -32 -10 -10 -23 -15 -28 -12 -4 3 -8 0 -8 -6 0 -6 -4 -9 -8 -6 -5
3 -18 -2 -28 -12 -10 -9 -43 -28 -71 -41 -29 -14 -53 -28 -53 -33 0 -4 -6 -8
-14 -8 -8 0 -42 -16 -75 -35 -34 -19 -64 -34 -66 -34 -11 -1 -70 -34 -76 -43
-3 -5 -10 -10 -15 -10 -18 -1 -94 -41 -94 -50 0 -5 -4 -7 -10 -3 -5 3 -55 -18
-112 -47 -57 -28 -105 -52 -108 -52 -18 -2 -90 -41 -90 -48 0 -5 -4 -7 -10 -3
-5 3 -31 -5 -58 -19 -76 -39 -242 -106 -242 -98 0 4 -4 2 -8 -3 -7 -11 -58
-37 -80 -41 -26 -5 -102 -39 -102 -46 0 -4 -7 -5 -15 -2 -8 4 -15 2 -15 -3 0
-5 -8 -9 -17 -10 -25 -2 -147 -46 -151 -55 -2 -4 -10 -4 -18 -1 -8 3 -14 1
-14 -4 0 -10 -8 -12 -54 -16 -13 -1 -22 -4 -20 -6 6 -6 -107 -43 -131 -42 -10
0 -24 -4 -31 -10 -7 -5 -21 -12 -32 -14 -12 -2 -54 -13 -94 -24 -40 -11 -84
-22 -98 -23 -14 -2 -29 -6 -35 -9 -5 -4 -18 -5 -27 -4 -10 2 -18 -1 -18 -5 0
-5 -8 -9 -17 -9 -27 1 -82 -8 -138 -21 -77 -18 -246 -26 -360 -17 -86 7 -205
58 -205 89 0 6 -7 16 -15 22 -8 6 -16 23 -17 39 -1 15 -5 27 -8 27 -13 0 6
125 25 163 8 17 15 33 15 38 0 14 84 154 100 166 8 7 11 13 5 13 -7 0 -7 3 0
8 6 4 30 34 54 67 25 33 55 70 68 82 13 12 23 25 23 28 0 3 12 17 26 30 14 13
24 25 22 27 -4 4 56 69 150 164 64 64 96 114 74 114 -4 0 -8 10 -8 23 -1 12
-5 33 -8 47 -4 14 -9 41 -12 60 -3 19 -9 64 -15 100 -5 36 -10 72 -10 80 -4
42 -63 66 -89 35 -7 -8 -16 -15 -21 -15 -4 0 -31 -23 -59 -50 -27 -28 -50 -49
-50 -46 0 3 -13 -7 -28 -22 -15 -15 -27 -29 -26 -32 1 -3 -16 -18 -37 -35 -21
-16 -41 -38 -44 -48 -4 -9 -9 -16 -13 -14 -4 2 -15 -4 -24 -15 -10 -10 -15
-18 -10 -18 4 -1 -3 -6 -15 -13 -12 -7 -23 -16 -25 -22 -2 -5 -6 -9 -10 -8 -5
2 -8 -2 -8 -8 0 -6 -15 -26 -32 -44 -18 -18 -40 -43 -48 -55 -8 -13 -25 -33
-37 -46 -13 -13 -23 -28 -23 -34 0 -6 -7 -13 -15 -16 -8 -4 -15 -12 -15 -20 0
-8 -4 -14 -9 -14 -5 0 -31 -33 -57 -72 -26 -40 -54 -79 -61 -86 -7 -7 -13 -18
-13 -23 0 -5 -12 -28 -27 -52 -15 -23 -28 -44 -28 -47 -1 -3 -20 -44 -43 -92
-23 -48 -42 -94 -42 -101 0 -8 -3 -17 -7 -21 -4 -3 -8 -16 -10 -28 -2 -12 -8
-27 -14 -35 -9 -9 -8 -13 0 -13 7 0 9 -5 4 -12 -11 -18 -14 -35 -17 -101 -2
-32 -7 -61 -10 -64 -8 -8 -8 -48 1 -56 3 -4 8 -22 10 -39 2 -18 5 -42 6 -53 5
-31 56 -125 68 -125 5 0 8 -4 5 -8 -3 -5 14 -29 37 -53 55 -58 102 -98 92 -79
-5 9 1 7 16 -5 13 -12 35 -26 49 -32 53 -24 110 -43 110 -37 0 4 6 2 13 -4 16
-13 97 -27 197 -35 19 -1 40 -5 45 -8 6 -3 33 -4 60 -2 28 2 79 6 115 8 36 2
65 4 65 6 0 2 37 6 125 13 30 3 80 10 110 17 30 6 65 12 78 12 12 1 22 4 22 7
0 3 10 6 23 7 27 1 56 7 80 18 9 4 24 5 32 1 8 -3 15 -1 15 4 0 6 3 9 7 8 15
-3 83 14 83 21 0 4 8 7 18 8 31 2 66 10 92 20 14 6 42 13 63 17 20 4 37 11 37
17 0 6 5 7 10 4 6 -4 17 -1 25 5 8 7 15 9 15 5 0 -4 6 -2 13 4 8 6 17 8 20 5
3 -3 16 1 29 10 12 9 32 16 43 16 11 0 37 9 58 20 20 11 37 16 37 11 0 -5 9
-13 20 -16 11 -3 26 -12 32 -18 21 -20 82 -62 91 -62 5 0 15 -9 23 -19 8 -11
14 -16 14 -11 0 4 9 0 20 -10 11 -10 20 -14 20 -9 0 5 7 0 15 -10 8 -11 15
-16 15 -12 0 4 12 -2 26 -13 15 -12 33 -21 40 -21 7 0 19 -6 26 -12 7 -7 27
-20 43 -28 17 -8 33 -18 36 -22 3 -5 17 -9 31 -10 15 -1 25 -5 22 -9 -2 -4 7
-10 21 -13 13 -3 34 -10 47 -15 13 -5 28 -10 33 -11 6 -1 19 -7 30 -13 11 -6
27 -12 35 -12 8 0 24 -6 35 -11 11 -6 48 -17 83 -24 34 -7 62 -15 62 -19 0 -6
26 -10 83 -14 15 -1 27 -6 27 -10 0 -5 8 -7 18 -5 9 1 22 0 27 -4 6 -3 44 -9
85 -13 41 -3 102 -8 135 -11 148 -13 475 8 519 34 5 3 23 6 40 8 42 4 74 12
86 19 9 6 23 9 80 21 13 3 29 9 36 15 6 5 14 6 18 2 4 -4 10 -2 14 4 4 7 22
13 40 15 18 1 32 6 32 10 0 4 19 13 43 19 23 7 47 18 52 24 6 7 18 11 28 9 9
-1 17 3 17 9 0 5 3 8 6 5 6 -7 166 79 175 94 3 5 10 9 14 7 9 -3 136 81 152
101 7 8 13 11 13 7 0 -4 16 8 35 27 19 20 35 32 35 28 0 -7 3 -5 159 147 62
61 109 111 105 111 -5 0 -2 5 8 10 9 6 42 45 74 88 32 42 62 79 66 80 4 2 8 9
8 15 0 7 11 25 25 40 14 15 22 27 18 27 -4 0 -3 4 3 8 6 4 26 36 45 72 18 36
36 67 39 70 5 5 20 35 79 162 12 26 24 56 26 68 2 11 7 26 12 33 4 6 9 21 10
31 2 11 7 24 12 30 9 12 19 45 27 91 4 17 9 32 12 35 4 3 8 12 9 20 1 8 4 25
6 36 3 12 8 37 11 55 8 47 14 78 20 97 3 9 8 44 11 77 3 33 8 78 11 100 8 53
7 262 -2 350 -13 126 -14 123 72 190 54 43 144 117 160 133 7 6 15 12 17 12 2
0 30 25 61 55 31 30 56 52 56 47 0 -4 8 5 18 21 10 15 22 24 25 20 4 -3 7 1 7
10 0 8 9 19 20 22 11 3 20 12 20 20 0 8 9 17 21 20 11 4 19 9 16 11 -2 2 20
29 50 59 29 31 53 60 53 66 0 6 5 7 10 4 6 -3 10 -1 10 5 0 7 13 24 30 40 16
15 27 30 24 33 -3 2 7 14 22 26 15 11 23 21 19 21 -4 0 3 9 16 20 13 10 21 19
17 20 -5 0 0 8 10 18 31 34 51 61 67 92 8 16 20 30 25 30 6 0 10 5 10 11 0 12
60 103 72 107 4 2 8 8 8 12 0 5 23 56 50 113 28 57 50 107 50 110 0 3 5 18 12
34 6 15 13 37 15 48 2 10 7 22 11 25 5 3 9 16 9 30 3 51 11 115 18 132 3 9 2
31 -2 50 -5 18 -8 45 -7 61 2 15 -1 27 -5 27 -4 0 -6 14 -5 30 1 17 -1 30 -5
30 -4 0 -13 17 -19 38 -6 21 -21 48 -32 60 -11 12 -18 22 -14 22 4 0 -21 27
-55 60 -34 33 -67 60 -72 60 -5 0 -15 5 -22 10 -28 24 -86 58 -90 54 -3 -3
-22 2 -43 11 -46 20 -63 24 -129 31 -27 3 -52 9 -55 13 -7 9 -340 7 -340 -2z"/>
<path d="M1274 5539 c-3 -5 -11 -8 -17 -7 -29 6 -107 -56 -107 -84 0 -9 -4
-19 -10 -23 -5 -3 -9 -26 -8 -50 1 -56 39 -119 86 -141 38 -18 122 -26 122
-13 0 5 6 9 13 9 16 0 67 44 67 58 0 6 5 12 12 14 6 2 13 29 16 59 5 66 -12
106 -60 142 -39 28 -105 49 -114 36z"/>
<path d="M3338 5485 c-4 -4 -24 -9 -45 -11 -21 -2 -49 -6 -63 -8 -14 -2 -56
-9 -95 -16 -38 -6 -74 -15 -79 -20 -5 -5 -15 -6 -22 -3 -8 3 -14 1 -14 -5 0
-5 -10 -8 -22 -8 -13 1 -29 -2 -36 -7 -7 -6 -15 -7 -19 -4 -3 4 -11 3 -17 -2
-6 -5 -37 -17 -68 -26 -32 -9 -58 -20 -58 -25 0 -4 -8 -7 -17 -6 -10 2 -34 -5
-53 -15 -19 -11 -42 -19 -50 -19 -9 0 -26 -9 -37 -19 -12 -11 -24 -17 -27 -14
-3 4 -14 -1 -23 -10 -10 -8 -21 -16 -26 -16 -7 -1 -59 -27 -88 -46 -9 -5 -32
-18 -50 -29 -19 -10 -44 -28 -56 -39 -13 -11 -23 -16 -23 -11 0 5 -4 4 -8 -1
-4 -6 -32 -29 -62 -50 -30 -22 -66 -49 -80 -60 -36 -28 -302 -295 -295 -295 4
0 0 -6 -7 -13 -7 -8 -22 -26 -33 -41 -18 -25 -60 -82 -82 -111 -5 -5 -14 -22
-22 -37 -8 -15 -23 -37 -33 -48 -10 -11 -16 -20 -14 -20 3 0 -8 -21 -24 -47
-17 -26 -30 -55 -30 -65 0 -10 -5 -17 -11 -16 -6 2 -13 -4 -14 -13 -1 -8 -14
-41 -29 -72 -14 -31 -25 -60 -25 -63 0 -3 -7 -16 -16 -30 -9 -13 -13 -29 -10
-34 3 -6 2 -10 -4 -10 -8 0 -18 -29 -27 -80 -2 -8 -8 -16 -14 -18 -5 -2 -8 -8
-4 -13 3 -5 2 -15 -3 -21 -4 -7 -9 -19 -10 -25 -6 -27 -9 -39 -20 -73 -10 -30
-14 -51 -28 -125 -1 -5 -3 -12 -4 -15 -6 -13 -12 -60 -14 -112 -1 -31 -5 -54
-9 -51 -10 6 -10 -1 2 -31 5 -15 5 -28 0 -31 -12 -7 -9 -335 3 -335 5 0 4 -6
-2 -13 -6 -8 -8 -17 -4 -21 4 -4 9 -19 10 -34 7 -58 11 -78 18 -94 4 -9 4 -21
1 -27 -4 -5 -2 -12 3 -15 23 -15 -4 -63 -74 -134 -41 -42 -75 -79 -75 -82 0
-4 -9 -17 -20 -30 -11 -12 -17 -26 -15 -30 3 -4 -2 -11 -11 -14 -8 -3 -13 -10
-10 -14 3 -5 -3 -22 -13 -38 -12 -20 -18 -48 -17 -82 0 -29 -2 -52 -7 -52 -16
0 52 -92 86 -115 76 -52 229 -62 382 -25 28 6 59 14 70 16 43 11 50 13 53 14
2 3 7 4 47 14 31 8 65 19 100 32 26 9 47 15 63 16 6 1 12 5 12 9 0 4 16 10 36
14 20 3 50 12 68 20 89 37 121 50 123 47 2 -1 26 9 53 23 28 14 50 23 50 20 0
-4 12 1 28 9 23 12 42 20 72 31 10 4 87 38 158 70 40 19 74 33 76 32 2 -1 13
7 25 17 12 11 21 16 21 13 0 -4 81 34 180 83 99 50 181 90 182 88 2 -1 13 7
26 17 12 11 26 20 30 20 4 0 27 12 52 27 25 15 62 34 83 44 20 10 37 21 37 26
0 4 9 8 20 8 11 0 20 5 20 11 0 5 4 8 9 4 5 -3 13 0 16 5 4 6 17 16 28 21 12
5 37 18 55 29 17 11 47 29 65 40 17 11 43 25 57 31 13 5 27 15 31 20 3 6 13
11 21 13 9 1 22 7 29 12 8 6 33 21 57 34 23 13 42 28 42 32 0 5 4 7 9 4 5 -4
11 -2 13 2 1 5 38 28 81 52 42 24 77 48 77 52 0 4 5 8 11 8 6 0 30 14 55 30
24 17 44 28 44 25 0 -3 8 2 18 11 26 24 364 244 374 244 5 0 6 5 3 10 -3 6 1
10 9 10 9 0 16 5 16 12 0 6 3 9 6 5 5 -5 57 30 117 79 9 7 17 10 17 6 0 -4 5
1 11 11 5 9 16 17 24 17 7 0 15 4 17 8 2 4 46 40 98 78 52 39 103 78 112 87 9
9 21 17 27 17 6 0 11 5 11 10 0 6 5 10 10 10 6 0 24 14 40 30 16 17 33 30 37
30 4 0 31 21 58 46 28 25 67 60 89 78 21 17 44 37 51 44 8 6 18 12 24 12 6 0
10 4 9 8 -2 4 36 46 83 92 123 121 237 274 256 345 14 51 15 108 2 116 -12 7
-12 9 0 9 11 0 11 3 1 15 -7 8 -9 15 -4 15 5 0 -2 7 -14 16 -12 8 -20 18 -18
22 4 6 -62 41 -109 58 -30 10 -148 11 -162 1 -7 -5 -13 -7 -13 -4 0 9 -139
-32 -213 -64 -38 -16 -73 -29 -78 -29 -5 0 -19 11 -31 25 -12 14 -25 25 -30
25 -4 0 -21 14 -36 30 -16 17 -32 30 -36 30 -3 0 -34 20 -68 45 -33 24 -65 42
-70 39 -4 -3 -8 -1 -8 5 0 5 -42 33 -92 62 -51 29 -96 57 -99 62 -3 5 -9 8
-13 8 -6 -1 -8 -1 -23 4 -5 1 -30 12 -58 25 -27 13 -53 24 -57 25 -5 2 -11 4
-15 5 -5 1 -11 2 -15 1 -5 0 -8 3 -8 7 0 5 -6 9 -12 9 -21 1 -43 8 -48 15 -3
4 -16 9 -28 11 -12 2 -25 6 -28 10 -4 4 -17 7 -29 7 -12 0 -25 3 -29 7 -8 8
-32 14 -63 16 -13 0 -23 4 -23 8 0 3 -13 9 -29 12 -16 3 -41 9 -56 13 -22 6
-26 4 -20 -7 7 -12 6 -12 -7 -1 -9 7 -27 15 -40 17 -12 2 -36 7 -53 10 -16 4
-46 8 -65 8 -19 1 -41 6 -47 10 -8 5 -13 4 -13 -3 0 -6 -5 -8 -12 -4 -19 12
-48 12 -48 1 0 -5 -5 -5 -13 1 -14 12 -225 11 -244 -1 -8 -5 -13 -4 -13 3 0 7
-6 8 -19 0 -13 -7 -20 -7 -23 1 -2 6 -6 7 -10 4z"/>
<path d="M5070 1608 c0 -5 -4 -8 -9 -8 -17 0 -57 -43 -79 -83 -36 -67 -6 -163
63 -201 11 -6 23 -15 26 -19 3 -4 10 -7 15 -6 5 1 17 -1 27 -5 9 -5 23 -6 30
-3 6 2 17 5 22 7 6 1 19 7 30 13 11 6 22 11 25 12 9 0 50 45 50 54 0 5 6 14
13 20 15 12 20 98 6 107 -5 3 -7 9 -4 14 8 13 -78 100 -101 101 -81 4 -114 3
-114 -3z"/>
</g>
</svg>
